<mxfile host="app.diagrams.net" modified="2023-11-13T20:01:34.624Z" agent="Mozilla/5.0 (Windows NT 10.0; Win64; x64) AppleWebKit/537.36 (KHTML, like Gecko) Chrome/119.0.0.0 Safari/537.36" etag="Hpamlk5mIW_boDu-881g" version="22.1.0" type="device">
  <diagram name="Page-1" id="2z-B9dDoZO_nZpRJCiCZ">
    <mxGraphModel dx="794" dy="464" grid="1" gridSize="10" guides="1" tooltips="1" connect="1" arrows="1" fold="1" page="1" pageScale="1" pageWidth="850" pageHeight="1100" math="0" shadow="0">
      <root>
        <mxCell id="0" />
        <mxCell id="1" parent="0" />
        <mxCell id="hqopwoenZzWIDXCSbCL5-6" value="" style="group" parent="1" vertex="1" connectable="0">
          <mxGeometry x="20" y="359.8" width="273.5" height="260.2" as="geometry" />
        </mxCell>
        <mxCell id="hqopwoenZzWIDXCSbCL5-1" value="" style="shape=image;verticalLabelPosition=bottom;labelBackgroundColor=default;verticalAlign=top;aspect=fixed;imageAspect=0;image=https://cdn.pixabay.com/photo/2017/01/13/01/22/mobile-1976104_1280.png;" parent="hqopwoenZzWIDXCSbCL5-6" vertex="1">
          <mxGeometry x="40" y="10.202173913043481" width="214.94782608695652" height="214.94782608695652" as="geometry" />
        </mxCell>
        <mxCell id="hqopwoenZzWIDXCSbCL5-49" value="" style="shape=flexArrow;endArrow=classic;startArrow=classic;html=1;rounded=0;fillColor=#000000;endSize=6;strokeWidth=0;" parent="hqopwoenZzWIDXCSbCL5-6" edge="1">
          <mxGeometry width="100" height="100" relative="1" as="geometry">
            <mxPoint x="147.01" y="221.1532173913043" as="sourcePoint" />
            <mxPoint x="147.01" y="300.1182608695652" as="targetPoint" />
          </mxGeometry>
        </mxCell>
        <mxCell id="hqopwoenZzWIDXCSbCL5-51" value="Location Data Logic" style="rounded=1;whiteSpace=wrap;html=1;" parent="hqopwoenZzWIDXCSbCL5-6" vertex="1">
          <mxGeometry x="110" y="120.19999999999999" width="75.03" height="49.8" as="geometry" />
        </mxCell>
        <mxCell id="hqopwoenZzWIDXCSbCL5-52" value="User Interface" style="rounded=1;whiteSpace=wrap;html=1;" parent="hqopwoenZzWIDXCSbCL5-6" vertex="1">
          <mxGeometry x="113.1" y="60.2" width="68.75" height="49.8" as="geometry" />
        </mxCell>
        <mxCell id="hqopwoenZzWIDXCSbCL5-4" value="&lt;h1&gt;ReactNative FE&lt;/h1&gt;&lt;p&gt;&lt;br&gt;&lt;/p&gt;" style="text;html=1;strokeColor=none;fillColor=none;spacing=5;spacingTop=-20;whiteSpace=wrap;overflow=hidden;rounded=0;" parent="hqopwoenZzWIDXCSbCL5-6" vertex="1">
          <mxGeometry x="55" y="-15.560000000000002" width="218.49999999999997" height="135.75652173913042" as="geometry" />
        </mxCell>
        <mxCell id="hqopwoenZzWIDXCSbCL5-10" value="&lt;h1&gt;TerraTracer Relational DB&lt;/h1&gt;&lt;div&gt;&lt;ul&gt;&lt;li style=&quot;text-align: left;&quot;&gt;&lt;font style=&quot;font-size: 14px;&quot;&gt;hosted on AWS RDS&lt;/font&gt;&lt;/li&gt;&lt;/ul&gt;&lt;/div&gt;" style="text;html=1;strokeColor=none;fillColor=none;spacing=5;spacingTop=-20;whiteSpace=wrap;overflow=hidden;rounded=0;align=center;" parent="1" vertex="1">
          <mxGeometry x="497.44" y="650" width="207.56" height="120" as="geometry" />
        </mxCell>
        <mxCell id="hqopwoenZzWIDXCSbCL5-7" value="Internal Storage" style="shape=datastore;whiteSpace=wrap;html=1;" parent="1" vertex="1">
          <mxGeometry x="140" y="670" width="55" height="50" as="geometry" />
        </mxCell>
        <mxCell id="hqopwoenZzWIDXCSbCL5-11" value="User" style="swimlane;fontStyle=0;childLayout=stackLayout;horizontal=1;startSize=26;horizontalStack=0;resizeParent=1;resizeParentMax=0;resizeLast=0;collapsible=1;marginBottom=0;align=center;fontSize=14;" parent="1" vertex="1">
          <mxGeometry x="260" y="770" width="160" height="86" as="geometry" />
        </mxCell>
        <mxCell id="hqopwoenZzWIDXCSbCL5-12" value="PK User_ID" style="text;strokeColor=none;fillColor=none;spacingLeft=4;spacingRight=4;overflow=hidden;rotatable=0;points=[[0,0.5],[1,0.5]];portConstraint=eastwest;fontSize=12;whiteSpace=wrap;html=1;" parent="hqopwoenZzWIDXCSbCL5-11" vertex="1">
          <mxGeometry y="26" width="160" height="30" as="geometry" />
        </mxCell>
        <mxCell id="hqopwoenZzWIDXCSbCL5-13" value="UQ Phone_ID" style="text;strokeColor=none;fillColor=none;spacingLeft=4;spacingRight=4;overflow=hidden;rotatable=0;points=[[0,0.5],[1,0.5]];portConstraint=eastwest;fontSize=12;whiteSpace=wrap;html=1;" parent="hqopwoenZzWIDXCSbCL5-11" vertex="1">
          <mxGeometry y="56" width="160" height="30" as="geometry" />
        </mxCell>
        <mxCell id="hqopwoenZzWIDXCSbCL5-17" value="Location" style="swimlane;fontStyle=0;childLayout=stackLayout;horizontal=1;startSize=26;horizontalStack=0;resizeParent=1;resizeParentMax=0;resizeLast=0;collapsible=1;marginBottom=0;align=center;fontSize=14;" parent="1" vertex="1">
          <mxGeometry x="460" y="770" width="160" height="236" as="geometry" />
        </mxCell>
        <mxCell id="hqopwoenZzWIDXCSbCL5-18" value="PK Location_ID" style="text;strokeColor=none;fillColor=none;spacingLeft=4;spacingRight=4;overflow=hidden;rotatable=0;points=[[0,0.5],[1,0.5]];portConstraint=eastwest;fontSize=12;whiteSpace=wrap;html=1;" parent="hqopwoenZzWIDXCSbCL5-17" vertex="1">
          <mxGeometry y="26" width="160" height="30" as="geometry" />
        </mxCell>
        <mxCell id="hqopwoenZzWIDXCSbCL5-25" value="UQ FK User_ID" style="text;strokeColor=none;fillColor=none;spacingLeft=4;spacingRight=4;overflow=hidden;rotatable=0;points=[[0,0.5],[1,0.5]];portConstraint=eastwest;fontSize=12;whiteSpace=wrap;html=1;" parent="hqopwoenZzWIDXCSbCL5-17" vertex="1">
          <mxGeometry y="56" width="160" height="30" as="geometry" />
        </mxCell>
        <mxCell id="hqopwoenZzWIDXCSbCL5-20" value="UQ Time" style="text;strokeColor=none;fillColor=none;spacingLeft=4;spacingRight=4;overflow=hidden;rotatable=0;points=[[0,0.5],[1,0.5]];portConstraint=eastwest;fontSize=12;whiteSpace=wrap;html=1;" parent="hqopwoenZzWIDXCSbCL5-17" vertex="1">
          <mxGeometry y="86" width="160" height="30" as="geometry" />
        </mxCell>
        <mxCell id="hqopwoenZzWIDXCSbCL5-19" value="&amp;nbsp; &amp;nbsp; &amp;nbsp; &amp;nbsp;Latitude_Precise" style="text;strokeColor=none;fillColor=none;spacingLeft=4;spacingRight=4;overflow=hidden;rotatable=0;points=[[0,0.5],[1,0.5]];portConstraint=eastwest;fontSize=12;whiteSpace=wrap;html=1;" parent="hqopwoenZzWIDXCSbCL5-17" vertex="1">
          <mxGeometry y="116" width="160" height="30" as="geometry" />
        </mxCell>
        <mxCell id="hqopwoenZzWIDXCSbCL5-21" value="&amp;nbsp; &amp;nbsp; &amp;nbsp; &amp;nbsp;Longitude_Precise" style="text;strokeColor=none;fillColor=none;spacingLeft=4;spacingRight=4;overflow=hidden;rotatable=0;points=[[0,0.5],[1,0.5]];portConstraint=eastwest;fontSize=12;whiteSpace=wrap;html=1;" parent="hqopwoenZzWIDXCSbCL5-17" vertex="1">
          <mxGeometry y="146" width="160" height="30" as="geometry" />
        </mxCell>
        <mxCell id="hqopwoenZzWIDXCSbCL5-22" value="&amp;nbsp; &amp;nbsp; &amp;nbsp; &amp;nbsp;Latitude" style="text;strokeColor=none;fillColor=none;spacingLeft=4;spacingRight=4;overflow=hidden;rotatable=0;points=[[0,0.5],[1,0.5]];portConstraint=eastwest;fontSize=12;whiteSpace=wrap;html=1;" parent="hqopwoenZzWIDXCSbCL5-17" vertex="1">
          <mxGeometry y="176" width="160" height="30" as="geometry" />
        </mxCell>
        <mxCell id="hqopwoenZzWIDXCSbCL5-23" value="&amp;nbsp; &amp;nbsp; &amp;nbsp; &amp;nbsp;Longitude" style="text;strokeColor=none;fillColor=none;spacingLeft=4;spacingRight=4;overflow=hidden;rotatable=0;points=[[0,0.5],[1,0.5]];portConstraint=eastwest;fontSize=12;whiteSpace=wrap;html=1;" parent="hqopwoenZzWIDXCSbCL5-17" vertex="1">
          <mxGeometry y="206" width="160" height="30" as="geometry" />
        </mxCell>
        <mxCell id="hqopwoenZzWIDXCSbCL5-30" value="POI_Visit" style="swimlane;fontStyle=0;childLayout=stackLayout;horizontal=1;startSize=26;horizontalStack=0;resizeParent=1;resizeParentMax=0;resizeLast=0;collapsible=1;marginBottom=0;align=center;fontSize=14;" parent="1" vertex="1">
          <mxGeometry x="660" y="770" width="160" height="146" as="geometry" />
        </mxCell>
        <mxCell id="hqopwoenZzWIDXCSbCL5-31" value="PK&amp;nbsp; &amp;nbsp; &amp;nbsp; &amp;nbsp;Visit_ID" style="text;strokeColor=none;fillColor=none;spacingLeft=4;spacingRight=4;overflow=hidden;rotatable=0;points=[[0,0.5],[1,0.5]];portConstraint=eastwest;fontSize=12;whiteSpace=wrap;html=1;" parent="hqopwoenZzWIDXCSbCL5-30" vertex="1">
          <mxGeometry y="26" width="160" height="30" as="geometry" />
        </mxCell>
        <mxCell id="hqopwoenZzWIDXCSbCL5-33" value="UQ FK Location_ID" style="text;strokeColor=none;fillColor=none;spacingLeft=4;spacingRight=4;overflow=hidden;rotatable=0;points=[[0,0.5],[1,0.5]];portConstraint=eastwest;fontSize=12;whiteSpace=wrap;html=1;" parent="hqopwoenZzWIDXCSbCL5-30" vertex="1">
          <mxGeometry y="56" width="160" height="30" as="geometry" />
        </mxCell>
        <mxCell id="hqopwoenZzWIDXCSbCL5-34" value="FK&amp;nbsp; &amp;nbsp; &amp;nbsp; &amp;nbsp; User_ID" style="text;strokeColor=none;fillColor=none;spacingLeft=4;spacingRight=4;overflow=hidden;rotatable=0;points=[[0,0.5],[1,0.5]];portConstraint=eastwest;fontSize=12;whiteSpace=wrap;html=1;" parent="hqopwoenZzWIDXCSbCL5-30" vertex="1">
          <mxGeometry y="86" width="160" height="30" as="geometry" />
        </mxCell>
        <mxCell id="hqopwoenZzWIDXCSbCL5-32" value="&amp;nbsp; &amp;nbsp; &amp;nbsp; &amp;nbsp; &amp;nbsp; &amp;nbsp; POI_ID_Mapbox" style="text;strokeColor=none;fillColor=none;spacingLeft=4;spacingRight=4;overflow=hidden;rotatable=0;points=[[0,0.5],[1,0.5]];portConstraint=eastwest;fontSize=12;whiteSpace=wrap;html=1;" parent="hqopwoenZzWIDXCSbCL5-30" vertex="1">
          <mxGeometry y="116" width="160" height="30" as="geometry" />
        </mxCell>
        <mxCell id="hqopwoenZzWIDXCSbCL5-36" value="" style="shape=image;verticalLabelPosition=bottom;labelBackgroundColor=default;verticalAlign=top;aspect=fixed;imageAspect=0;image=https://www.reso.org/wp-content/uploads/2020/06/reso-web-api-cloud-icon.png;" parent="1" vertex="1">
          <mxGeometry x="440" y="440" width="69.88" height="69.6" as="geometry" />
        </mxCell>
        <mxCell id="hqopwoenZzWIDXCSbCL5-37" value="&lt;h1&gt;TerraTracer API&lt;/h1&gt;&lt;div style=&quot;font-size: 14px;&quot;&gt;&lt;ul&gt;&lt;li&gt;Python&lt;/li&gt;&lt;li&gt;Django&lt;/li&gt;&lt;li&gt;hosted on AWS cloud&lt;/li&gt;&lt;/ul&gt;&lt;/div&gt;" style="text;html=1;strokeColor=none;fillColor=none;spacing=5;spacingTop=-20;whiteSpace=wrap;overflow=hidden;rounded=0;" parent="1" vertex="1">
          <mxGeometry x="530" y="460" width="190" height="120" as="geometry" />
        </mxCell>
        <mxCell id="hqopwoenZzWIDXCSbCL5-39" value="" style="shape=flexArrow;endArrow=classic;startArrow=classic;html=1;rounded=0;fillColor=#000000;" parent="1" edge="1">
          <mxGeometry width="100" height="100" relative="1" as="geometry">
            <mxPoint x="480" y="650" as="sourcePoint" />
            <mxPoint x="480" y="530" as="targetPoint" />
          </mxGeometry>
        </mxCell>
        <mxCell id="hqopwoenZzWIDXCSbCL5-41" value="" style="shape=image;verticalLabelPosition=bottom;labelBackgroundColor=default;verticalAlign=top;aspect=fixed;imageAspect=0;image=https://static-00.iconduck.com/assets.00/mapbox-icon-2048x2048-pmda994e.png;" parent="1" vertex="1">
          <mxGeometry x="415" y="220" width="50" height="50" as="geometry" />
        </mxCell>
        <mxCell id="hqopwoenZzWIDXCSbCL5-42" value="&lt;h1&gt;Mapbox API&lt;/h1&gt;&lt;div style=&quot;font-size: 14px;&quot;&gt;&lt;font style=&quot;font-size: 14px;&quot;&gt;via ReactNative SDK&lt;/font&gt;&lt;/div&gt;&lt;div style=&quot;font-size: 14px;&quot;&gt;&lt;ul style=&quot;&quot;&gt;&lt;li style=&quot;&quot;&gt;&lt;font style=&quot;font-size: 14px;&quot;&gt;Maps&lt;/font&gt;&lt;/li&gt;&lt;li style=&quot;&quot;&gt;&lt;font style=&quot;font-size: 14px;&quot;&gt;Points of Interest (POI)&lt;/font&gt;&lt;/li&gt;&lt;/ul&gt;&lt;/div&gt;" style="text;html=1;strokeColor=none;fillColor=none;spacing=5;spacingTop=-20;whiteSpace=wrap;overflow=hidden;rounded=0;" parent="1" vertex="1">
          <mxGeometry x="475" y="210" width="215" height="120" as="geometry" />
        </mxCell>
        <mxCell id="hqopwoenZzWIDXCSbCL5-44" value="" style="shape=flexArrow;endArrow=classic;html=1;rounded=0;fillColor=#000000;" parent="1" edge="1">
          <mxGeometry width="50" height="50" relative="1" as="geometry">
            <mxPoint x="390" y="270" as="sourcePoint" />
            <mxPoint x="270" y="340" as="targetPoint" />
          </mxGeometry>
        </mxCell>
        <mxCell id="hqopwoenZzWIDXCSbCL5-45" value="" style="shape=flexArrow;endArrow=classic;startArrow=classic;html=1;rounded=0;fillColor=#000000;" parent="1" edge="1">
          <mxGeometry width="100" height="100" relative="1" as="geometry">
            <mxPoint x="250" y="480" as="sourcePoint" />
            <mxPoint x="420" y="480" as="targetPoint" />
          </mxGeometry>
        </mxCell>
        <mxCell id="hqopwoenZzWIDXCSbCL5-47" value="" style="shape=datastore;whiteSpace=wrap;html=1;" parent="1" vertex="1">
          <mxGeometry x="452.88" y="670" width="55" height="50" as="geometry" />
        </mxCell>
      </root>
    </mxGraphModel>
  </diagram>
</mxfile>
